<?xml version="1.0" encoding="UTF-8" standalone="no"?>
<!DOCTYPE svg PUBLIC "-//W3C//DTD SVG 1.1//EN" "http://www.w3.org/Graphics/SVG/1.1/DTD/svg11.dtd">
<svg width="100%" height="100%" viewBox="0 0 1080 1080" version="1.1" xmlns="http://www.w3.org/2000/svg" xmlns:xlink="http://www.w3.org/1999/xlink" xml:space="preserve" xmlns:serif="http://www.serif.com/" style="fill-rule:evenodd;clip-rule:evenodd;stroke-linejoin:round;stroke-miterlimit:2;">
    <g transform="matrix(0.965018,0,0,1.00446,19.3727,-0.410714)">
        <g transform="matrix(1.03625,0,0,0.995556,-20.075,0.408889)">
            <path d="M358.495,945C353.248,977.647 350.374,999 350.374,999L140,999C140,999 142.874,977.647 148.122,945L358.495,945ZM382.611,815C375.032,850.309 368.575,885.229 363.475,915L153.101,915C158.201,885.228 164.658,850.311 172.237,815L382.611,815ZM417.624,685C407.247,713.896 397.726,748.951 389.319,785L178.945,785C187.357,748.933 196.875,713.89 207.25,685L417.624,685ZM510,555C479.173,582.878 452.062,612.821 434.813,645C433.133,648.135 431.468,651.47 429.815,655L219.441,655C221.094,651.47 222.759,648.135 224.439,645C241.688,612.821 268.799,582.878 299.626,555L510,555ZM682.305,425C669.074,432.388 656.524,440.27 645.187,449C614.921,472.306 579.329,497.572 545.299,525L334.925,525C368.955,497.572 404.547,472.306 434.813,449C446.15,440.27 458.7,432.388 471.931,425L682.305,425ZM872.788,295C867.278,304.947 861.521,313.783 855.561,321C829.102,353.04 786.067,374.142 742.273,395L531.899,395C575.693,374.142 618.728,353.04 645.187,321C651.147,313.783 656.904,304.947 662.414,295L872.788,295ZM921.787,165C912.936,196.432 901.209,233.196 887.395,265L677.021,265C690.834,233.198 702.562,196.431 711.413,165L921.787,165ZM719.462,135C726.002,109.4 729.626,92 729.626,92L940,92C940,92 936.376,109.4 929.836,135L719.462,135Z" style="fill:url(#_Linear1);"/>
        </g>
        <g transform="matrix(1.03625,0,0,0.995556,-20.075,0.408889)">
            <path d="M933.792,945C937.863,973.634 940,999 940,999L730,999C730,999 727.489,973.634 723.418,945L933.792,945ZM911.827,815C918.955,850.599 924.841,885.629 929.354,915L718.98,915C714.466,885.624 708.582,850.6 701.453,815L911.827,815ZM878.203,685C888.465,713.94 897.62,749.038 905.533,785L695.159,785C687.241,749.022 678.086,713.931 667.829,685L878.203,685ZM783.46,555C815.325,582.723 843.368,612.585 861,645C862.705,648.135 864.387,651.469 866.051,655L655.677,655C654.013,651.469 652.331,648.135 650.626,645C632.994,612.585 604.951,582.723 573.086,555L783.46,555ZM606.078,425C619.996,432.708 633.23,440.91 645.187,450C675.666,473.171 711.927,498.025 746.738,525L536.364,525C501.553,498.025 465.292,473.171 434.813,450C422.856,440.91 409.622,432.708 395.704,425L606.078,425ZM417.612,295C423.115,304.94 428.863,313.774 434.813,321C460.999,352.798 503.161,374.12 546.366,395L335.992,395C292.787,374.12 250.625,352.798 224.439,321C218.489,313.774 212.741,304.94 207.238,295L417.612,295ZM368.602,165C377.458,196.428 389.191,233.189 403.009,265L192.635,265C178.817,233.185 167.084,196.426 158.228,165L368.602,165ZM150.173,135C143.626,109.394 140,92 140,92L350.374,92C350.374,92 354,109.394 360.547,135L150.173,135Z" style="fill:url(#_Linear2);"/>
        </g>
    </g>
    <defs>
        <linearGradient id="_Linear1" x1="0" y1="0" x2="1" y2="0" gradientUnits="userSpaceOnUse" gradientTransform="matrix(829,0,0,902.969,125,543.484)"><stop offset="0" style="stop-color:rgb(208,88,255);stop-opacity:1"/><stop offset="0.07" style="stop-color:rgb(181,103,211);stop-opacity:1"/><stop offset="0.2" style="stop-color:rgb(177,106,204);stop-opacity:1"/><stop offset="0.5" style="stop-color:rgb(108,65,125);stop-opacity:1"/><stop offset="1" style="stop-color:black;stop-opacity:1"/></linearGradient>
        <linearGradient id="_Linear2" x1="0" y1="0" x2="1" y2="0" gradientUnits="userSpaceOnUse" gradientTransform="matrix(829,0,0,902.969,125,543.484)"><stop offset="0" style="stop-color:rgb(208,88,255);stop-opacity:1"/><stop offset="0.07" style="stop-color:rgb(181,103,211);stop-opacity:1"/><stop offset="0.2" style="stop-color:rgb(177,106,204);stop-opacity:1"/><stop offset="0.5" style="stop-color:rgb(108,65,125);stop-opacity:1"/><stop offset="1" style="stop-color:black;stop-opacity:1"/></linearGradient>
    </defs>
</svg>
